<svg id="Layer_1" enable-background="new 0 0 512 512" height="512" viewBox="0 0 512 512" width="512" xmlns="http://www.w3.org/2000/svg"><g><path d="m477.347 488.677c-12.112-18.169-29.082-32.392-49.068-41.129l-102.001-44.626c-4.637-2.028-9.986-1.582-14.222 1.189s-6.79 7.492-6.79 12.554v16.067c0 27.166-22.101 49.267-49.267 49.267s-49.267-22.101-49.267-49.267v-16.067c0-5.062-2.553-9.783-6.79-12.554-4.236-2.771-9.585-3.217-14.222-1.189l-102 44.626c-19.986 8.738-36.956 22.96-49.068 41.129-4.596 6.893-2.733 16.206 4.16 20.802 2.557 1.705 5.448 2.521 8.307 2.521h417.761c2.859 0 5.75-.816 8.307-2.521 6.893-4.596 8.756-13.909 4.16-20.802z" fill="#ff5a96"/><path d="m473.187 509.479c6.893-4.596 8.755-13.909 4.16-20.802-12.112-18.169-29.082-32.392-49.068-41.129l-102.001-44.626c-4.637-2.028-9.986-1.582-14.222 1.189s-6.79 7.492-6.79 12.554v16.067c0 27.166-22.101 49.267-49.267 49.267v30.001h208.881c2.859 0 5.75-.816 8.307-2.521z" fill="#bc2d64"/><path d="m320.266 377.566h-128.533c-8.284 0-15 6.716-15 15v40.167c0 43.778 35.489 79.267 79.267 79.267s79.267-35.489 79.267-79.267v-40.167c-.001-8.284-6.716-15-15.001-15z" fill="#ffbeb9"/><path d="m335.266 432.731v-40.167c0-8.284-6.716-15-15-15h-64.267v134.435c43.778.001 79.267-35.49 79.267-79.268z" fill="#ffa0aa"/><path d="m143.533 192.799h-31.358c-25.847 0-47.471 20.484-47.902 46.328-.441 26.4 20.827 47.939 47.127 47.939h32.133c8.284 0 15-6.716 15-15v-64.267c0-8.284-6.716-15-15-15z" fill="#ffbeb9"/><path d="m368.467 192.799h31.358c25.847 0 47.471 20.484 47.902 46.328.441 26.4-20.827 47.939-47.127 47.939h-32.133c-8.284 0-15-6.716-15-15v-64.267c0-8.284 6.715-15 15-15z" fill="#ffa0aa"/><path d="m143.525 222.8c-3.386 0-6.791-1.14-9.595-3.477-2.188-1.824-53.597-45.383-53.597-107.923 0-47.125 36.576-75.099 38.133-76.267 4.545-3.409 10.626-3.958 15.708-1.417s8.292 7.735 8.292 13.417c0 11.367 8.965 23.534 19.881 29.487 4.279-23.056 16.667-42.714 36.452-57.553 18.28-13.71 36.719-18.425 37.495-18.619 4.483-1.119 9.229-.113 12.869 2.729 3.641 2.843 5.769 7.204 5.769 11.823 0 16.307 2.06 28.829 4.626 37.803 17.125-15.997 47.978-36.736 92.84-36.736 5.199 0 10.026 2.692 12.76 7.114 2.733 4.422 2.981 9.944.657 14.594-.102.206-8.305 16.917-12.319 37.166 11.207-1.641 25.284-1.556 39.84 3.979 23.247 8.838 41.187 28.703 53.323 59.043 1.849 4.621 1.284 9.859-1.506 13.98-2.791 4.122-7.443 6.591-12.421 6.591-10.83.185-49.267 5.233-49.267 49.267 0 8.284-6.716 15-15 15z" fill="#82503c"/><path d="m383.467 207.799c0-44.034 38.437-49.082 49.267-49.267 4.978 0 9.63-2.469 12.421-6.591 2.791-4.121 3.355-9.359 1.506-13.98-12.136-30.34-30.076-50.205-53.323-59.043-14.557-5.535-28.633-5.62-39.84-3.979 4.014-20.249 12.217-36.959 12.319-37.166 2.325-4.65 2.076-10.172-.657-14.594s-7.561-7.114-12.76-7.114c-44.862 0-75.716 20.74-92.84 36.736-1.436-5.022-2.713-11.158-3.56-18.443v188.442h112.467c8.284-.001 15-6.717 15-15.001z" fill="#50321e"/><path d="m361.759 333.683-64.267-32.133c-25.981-12.994-57.002-12.994-82.983-.001l-64.268 32.134c-4.649 2.324-10.172 2.076-14.594-.657s-7.114-7.561-7.114-12.76v-96.4c0-43.708 35.559-79.267 79.267-79.267h96.4c43.708 0 79.267 35.559 79.267 79.267v96.4c0 5.199-2.692 10.027-7.114 12.76-4.427 2.736-9.95 2.979-14.594.657z" fill="#ffdcc8"/><path d="m297.492 301.549 64.267 32.133c4.645 2.322 10.167 2.079 14.594-.657 4.422-2.733 7.114-7.561 7.114-12.76v-96.4c0-43.708-35.559-79.267-79.267-79.267h-48.201v147.204c14.251.002 28.502 3.25 41.493 9.747z" fill="#ffbeb9"/><circle clip-rule="evenodd" cx="207.8" cy="223.866" fill="#283741" fill-rule="evenodd" r="15"/><circle clip-rule="evenodd" cx="304.2" cy="223.866" fill="#0a141e" fill-rule="evenodd" r="15"/><path d="m255.999 422.648c-24.377 0-48.753-5.555-70.974-16.665-22.36-11.182-56.492-35.595-56.492-85.717 0-5.682 3.21-10.875 8.292-13.417l64.267-32.133c34.382-17.194 75.436-17.194 109.818.001l64.265 32.132c5.082 2.541 8.292 7.735 8.292 13.417 0 50.18-34.208 74.572-56.491 85.716-22.222 11.111-46.6 16.666-70.977 16.666z" fill="#f0f5fa"/><path d="m383.467 320.266c0-5.682-3.21-10.875-8.292-13.417l-64.265-32.132c-17.191-8.598-36.051-12.897-54.91-12.896v160.827c24.377 0 48.755-5.555 70.977-16.666 22.282-11.144 56.49-35.535 56.49-85.716z" fill="#dfe3e9"/></g></svg>