<?xml version="1.0" encoding="iso-8859-1"?>
<!-- Generator: Adobe Illustrator 16.0.0, SVG Export Plug-In . SVG Version: 6.00 Build 0)  -->
<!DOCTYPE svg PUBLIC "-//W3C//DTD SVG 1.1//EN" "http://www.w3.org/Graphics/SVG/1.1/DTD/svg11.dtd">
<svg version="1.1" id="Capa_1" xmlns="http://www.w3.org/2000/svg" xmlns:xlink="http://www.w3.org/1999/xlink" x="0px" y="0px"
	 width="32px" height="32px" viewBox="0 0 32 32" style="enable-background:new 0 0 32 32;" xml:space="preserve">
<g>
	<g>
		<path d="M29,0H3C1.346,0,0,1.346,0,3v26c0,1.654,1.346,3,3,3h26c1.654,0,3-1.346,3-3V3C32,1.346,30.654,0,29,0z M30,29
			c0,0.156-0.043,0.299-0.105,0.43l-0.463-2.467c-0.178-0.183-0.389-0.336-0.631-0.461c-1.221-0.625-2.482-1.145-3.76-1.635
			c-0.096-0.036-0.21-0.107-0.248-0.192c-0.104-0.229-0.176-0.475-0.251-0.716c-0.047-0.154-0.089-0.3-0.258-0.374
			c-0.046-0.021-0.087-0.108-0.087-0.166c0.01-0.562-0.12-1.149,0.295-1.639c0.014-0.017,0.02-0.037,0.027-0.056
			c0.225-0.49,0.264-1.052,0.576-1.509c0.008-0.011,0.01-0.024,0.012-0.039c0.035-0.349,0.074-0.696,0.104-1.045
			c0.003-0.043-0.034-0.12-0.07-0.134c-0.174-0.061-0.164-0.199-0.164-0.339c0-0.681,0-1.361,0-2.042
			c0-0.396-0.117-0.748-0.416-1.018c-0.34-0.306-0.689-0.602-1.041-0.897c-0.168-0.144-0.184-0.253-0.024-0.411
			c0.069-0.069,0.159-0.118,0.239-0.177c-0.018-0.027-0.034-0.053-0.051-0.08c-0.106,0-0.215-0.015-0.316,0.002
			c-0.387,0.063-0.775,0.117-1.156,0.207c-0.727,0.171-1.432,0.397-2.02,0.884c-0.403,0.333-0.726,0.719-0.768,1.268
			c-0.02,0.287-0.017,0.574-0.02,0.861c-0.002,0.469,0.005,0.938-0.006,1.403c-0.002,0.075-0.045,0.2-0.099,0.218
			c-0.188,0.062-0.192,0.184-0.169,0.34c0.02,0.108,0.006,0.223,0.028,0.328c0.065,0.292,0.136,0.585,0.22,0.872
			c0.062,0.214,0.184,0.417,0.219,0.635c0.066,0.437,0.229,0.814,0.522,1.144c0.049,0.056,0.086,0.146,0.079,0.219
			c-0.022,0.334-0.057,0.669-0.104,1.002c-0.009,0.064-0.076,0.162-0.133,0.174c-0.223,0.047-0.258,0.219-0.311,0.393
			c-0.069,0.229-0.146,0.457-0.233,0.679c-0.026,0.069-0.097,0.142-0.165,0.171c-0.396,0.173-0.799,0.332-1.197,0.499
			c-0.426,0.18-0.854,0.351-1.268,0.547c-0.428,0.203-0.843,0.435-1.26,0.658c-0.247,0.131-0.477,0.276-0.67,0.459L14.293,30H3
			c-0.551,0-1-0.449-1-1V3c0-0.552,0.449-1,1-1h26c0.551,0,1,0.448,1,1V29z"/>
		<path d="M13.913,6.169c0.501,0,0.9,0.111,1.189,0.232l0.287-1.123C15.139,5.148,14.582,5,13.849,5
			c-1.895,0-3.417,1.188-3.417,3.323c0,1.783,1.114,3.129,3.278,3.129c0.76,0,1.346-0.14,1.605-0.27l-0.213-1.104
			c-0.28,0.11-0.754,0.204-1.18,0.204c-1.263,0-2.007-0.789-2.007-2.043C11.916,6.848,12.79,6.169,13.913,6.169z"/>
		<path d="M19.266,7.776c-0.216,0.715-0.408,1.458-0.566,2.209h-0.027c-0.15-0.78-0.344-1.494-0.559-2.238l-0.76-2.646h-1.553
			l2.008,6.258h1.651l2.106-6.258h-1.504L19.266,7.776z"/>
	</g>
</g>
<g>
</g>
<g>
</g>
<g>
</g>
<g>
</g>
<g>
</g>
<g>
</g>
<g>
</g>
<g>
</g>
<g>
</g>
<g>
</g>
<g>
</g>
<g>
</g>
<g>
</g>
<g>
</g>
<g>
</g>
</svg>
